<svg xmlns="http://www.w3.org/2000/svg" xmlns:xlink="http://www.w3.org/1999/xlink" width="500" zoomAndPan="magnify" viewBox="0 0 375 374.999991" height="500" preserveAspectRatio="xMidYMid meet" version="1.0"><defs><g/></defs><g fill="#000000" fill-opacity="1"><g transform="translate(246.444948, 207.462291)"><g><path d="M 4.65625 -37.5 L 4.65625 -6.296875 C 4.65625 -4.585938 4.765625 -3.296875 4.984375 -2.421875 C 5.203125 -1.546875 5.410156 -0.957031 5.609375 -0.65625 C 5.804688 -0.351562 5.90625 -0.203125 5.90625 -0.203125 L 19.671875 -0.203125 C 22.816406 -0.203125 25.476562 -1.335938 27.65625 -3.609375 L 27.71875 -3.546875 L 25.5 0 L 0.921875 0 C 0.921875 0 1.03125 -0.148438 1.25 -0.453125 C 1.46875 -0.765625 1.6875 -1.359375 1.90625 -2.234375 C 2.125 -3.109375 2.234375 -4.351562 2.234375 -5.96875 L 2.234375 -37.5 C 2.234375 -39.8125 2.046875 -41.359375 1.671875 -42.140625 C 1.296875 -42.929688 1.046875 -43.367188 0.921875 -43.453125 L 5.828125 -43.453125 C 5.828125 -43.453125 5.726562 -43.300781 5.53125 -43 C 5.34375 -42.695312 5.148438 -42.117188 4.953125 -41.265625 C 4.753906 -40.410156 4.65625 -39.15625 4.65625 -37.5 Z M 4.65625 -37.5 "/></g></g></g><g fill="#000000" fill-opacity="1"><g transform="translate(195.421579, 204.776196)"><g><path d="M 2.25 -17.921875 C 2.25 -17.691406 2.15625 -17.445312 1.96875 -17.1875 C 1.789062 -16.9375 1.519531 -16.8125 1.15625 -16.8125 C 0.789062 -16.8125 0.515625 -16.945312 0.328125 -17.21875 C 0.148438 -17.5 0.0625 -17.734375 0.0625 -17.921875 C 0.0625 -20.015625 0.515625 -22.242188 1.421875 -24.609375 C 2.335938 -26.984375 3.613281 -29.320312 5.25 -31.625 C 6.894531 -33.925781 8.800781 -36.007812 10.96875 -37.875 C 13.132812 -39.75 15.492188 -41.242188 18.046875 -42.359375 C 20.597656 -43.472656 23.242188 -44.03125 25.984375 -44.03125 C 28.347656 -44.03125 30.328125 -43.734375 31.921875 -43.140625 C 33.523438 -42.546875 34.804688 -41.726562 35.765625 -40.6875 C 36.578125 -40.914062 37.382812 -41.082031 38.1875 -41.1875 C 38.988281 -41.300781 39.773438 -41.359375 40.546875 -41.359375 C 42.921875 -41.359375 44.722656 -40.890625 45.953125 -39.953125 C 47.179688 -39.023438 47.960938 -37.863281 48.296875 -36.46875 C 48.640625 -35.082031 48.609375 -33.660156 48.203125 -32.203125 C 47.796875 -30.742188 47.101562 -29.46875 46.125 -28.375 C 45.144531 -27.28125 43.96875 -26.570312 42.59375 -26.25 C 42.507812 -24.289062 41.929688 -22.125 40.859375 -19.75 C 39.785156 -17.382812 38.367188 -15.015625 36.609375 -12.640625 C 34.859375 -10.273438 32.832031 -8.085938 30.53125 -6.078125 C 28.226562 -4.078125 25.785156 -2.472656 23.203125 -1.265625 C 20.628906 -0.0546875 18.023438 0.546875 15.390625 0.546875 C 12.691406 0.546875 10.476562 -0.113281 8.75 -1.4375 C 7.019531 -2.757812 6.15625 -4.925781 6.15625 -7.9375 C 6.15625 -10.394531 6.710938 -12.957031 7.828125 -15.625 C 8.941406 -18.289062 10.476562 -20.921875 12.4375 -23.515625 C 14.40625 -26.117188 16.609375 -28.546875 19.046875 -30.796875 C 21.484375 -33.054688 24.054688 -35.015625 26.765625 -36.671875 C 29.484375 -38.335938 32.140625 -39.582031 34.734375 -40.40625 C 33.910156 -41.457031 32.78125 -42.253906 31.34375 -42.796875 C 29.914062 -43.347656 28.128906 -43.625 25.984375 -43.625 C 23.378906 -43.625 20.867188 -43.097656 18.453125 -42.046875 C 16.046875 -41.003906 13.816406 -39.625 11.765625 -37.90625 C 9.710938 -36.195312 7.921875 -34.351562 6.390625 -32.375 C 4.867188 -30.394531 3.6875 -28.457031 2.84375 -26.5625 C 2 -24.664062 1.578125 -22.988281 1.578125 -21.53125 C 1.578125 -20.351562 1.6875 -19.507812 1.90625 -19 C 2.132812 -18.5 2.25 -18.140625 2.25 -17.921875 Z M 36.78125 -33.09375 C 36.875 -34.414062 36.796875 -35.65625 36.546875 -36.8125 C 36.296875 -37.976562 35.828125 -39.019531 35.140625 -39.9375 C 32.640625 -39.0625 30.132812 -37.742188 27.625 -35.984375 C 25.113281 -34.234375 22.726562 -32.160156 20.46875 -29.765625 C 18.21875 -27.378906 16.210938 -24.84375 14.453125 -22.15625 C 12.703125 -19.46875 11.328125 -16.765625 10.328125 -14.046875 C 9.328125 -11.335938 8.828125 -8.773438 8.828125 -6.359375 C 8.828125 -4.535156 9.328125 -3.007812 10.328125 -1.78125 C 11.328125 -0.550781 13.082031 0.0625 15.59375 0.0625 C 18.1875 0.0625 20.757812 -0.5625 23.3125 -1.8125 C 25.863281 -3.0625 28.28125 -4.703125 30.5625 -6.734375 C 32.84375 -8.765625 34.847656 -10.988281 36.578125 -13.40625 C 38.304688 -15.820312 39.671875 -18.210938 40.671875 -20.578125 C 41.679688 -22.953125 42.1875 -25.070312 42.1875 -26.9375 C 42.1875 -28.257812 41.863281 -29.429688 41.21875 -30.453125 C 40.582031 -31.484375 39.582031 -32.160156 38.21875 -32.484375 C 38.082031 -30.378906 37.613281 -28.222656 36.8125 -26.015625 C 36.019531 -23.804688 34.992188 -21.648438 33.734375 -19.546875 C 32.484375 -17.453125 31.09375 -15.570312 29.5625 -13.90625 C 28.039062 -12.25 26.46875 -10.929688 24.84375 -9.953125 C 23.226562 -8.972656 21.691406 -8.484375 20.234375 -8.484375 C 19.003906 -8.484375 18.015625 -8.789062 17.265625 -9.40625 C 16.515625 -10.019531 16.140625 -10.960938 16.140625 -12.234375 C 16.140625 -13.609375 16.515625 -15.207031 17.265625 -17.03125 C 18.015625 -18.851562 19.0625 -20.695312 20.40625 -22.5625 C 21.75 -24.425781 23.285156 -26.15625 25.015625 -27.75 C 26.753906 -29.351562 28.601562 -30.644531 30.5625 -31.625 C 32.519531 -32.601562 34.476562 -33.09375 36.4375 -33.09375 Z M 20.03125 -8.953125 C 21.3125 -8.953125 22.679688 -9.441406 24.140625 -10.421875 C 25.597656 -11.398438 27.039062 -12.707031 28.46875 -14.34375 C 29.90625 -15.988281 31.21875 -17.847656 32.40625 -19.921875 C 33.59375 -22.003906 34.582031 -24.140625 35.375 -26.328125 C 36.175781 -28.515625 36.644531 -30.632812 36.78125 -32.6875 L 36.4375 -32.6875 C 34.53125 -32.6875 32.628906 -32.195312 30.734375 -31.21875 C 28.835938 -30.238281 27.035156 -28.960938 25.328125 -27.390625 C 23.617188 -25.816406 22.101562 -24.117188 20.78125 -22.296875 C 19.457031 -20.472656 18.421875 -18.671875 17.671875 -16.890625 C 16.921875 -15.109375 16.546875 -13.554688 16.546875 -12.234375 C 16.546875 -11.054688 16.875 -10.210938 17.53125 -9.703125 C 18.195312 -9.203125 19.03125 -8.953125 20.03125 -8.953125 Z M 40.546875 -40.953125 C 39.816406 -40.953125 39.085938 -40.894531 38.359375 -40.78125 C 37.628906 -40.664062 36.878906 -40.492188 36.109375 -40.265625 C 36.921875 -39.316406 37.5 -38.210938 37.84375 -36.953125 C 38.1875 -35.703125 38.3125 -34.347656 38.21875 -32.890625 C 39.726562 -32.566406 40.832031 -31.847656 41.53125 -30.734375 C 42.238281 -29.617188 42.59375 -28.351562 42.59375 -26.9375 L 42.59375 -26.796875 C 43.875 -27.117188 44.957031 -27.800781 45.84375 -28.84375 C 46.726562 -29.894531 47.363281 -31.101562 47.75 -32.46875 C 48.144531 -33.84375 48.179688 -35.175781 47.859375 -36.46875 C 47.546875 -37.769531 46.796875 -38.84375 45.609375 -39.6875 C 44.421875 -40.53125 42.734375 -40.953125 40.546875 -40.953125 Z M 40.546875 -40.953125 "/></g></g></g><g fill="#000000" fill-opacity="1"><g transform="translate(96.779962, 207.937837)"><g><path d="M 1.359375 0 L 1.359375 -0.34375 C 2.210938 -0.382812 2.90625 -0.429688 3.4375 -0.484375 C 3.96875 -0.546875 4.445312 -0.660156 4.875 -0.828125 C 5.3125 -1.003906 5.632812 -1.191406 5.84375 -1.390625 C 6.050781 -1.597656 6.226562 -1.90625 6.375 -2.3125 C 6.519531 -2.726562 6.609375 -3.175781 6.640625 -3.65625 C 6.679688 -4.132812 6.703125 -4.769531 6.703125 -5.5625 L 6.703125 -37.359375 C 6.703125 -38.148438 6.679688 -38.785156 6.640625 -39.265625 C 6.609375 -39.742188 6.519531 -40.1875 6.375 -40.59375 C 6.226562 -41.007812 6.050781 -41.316406 5.84375 -41.515625 C 5.632812 -41.722656 5.3125 -41.910156 4.875 -42.078125 C 4.445312 -42.253906 3.96875 -42.367188 3.4375 -42.421875 C 2.90625 -42.484375 2.210938 -42.535156 1.359375 -42.578125 L 1.359375 -42.921875 L 8.375 -42.921875 L 35.03125 -4.109375 L 35.03125 -37.359375 C 35.03125 -38.929688 34.875 -40.039062 34.5625 -40.6875 C 34.257812 -41.332031 33.648438 -41.78125 32.734375 -42.03125 C 31.710938 -42.332031 30.140625 -42.515625 28.015625 -42.578125 L 28.015625 -42.921875 L 41.5625 -42.921875 L 41.5625 -42.578125 C 40.695312 -42.535156 40 -42.476562 39.46875 -42.40625 C 38.945312 -42.34375 38.460938 -42.234375 38.015625 -42.078125 C 37.578125 -41.929688 37.253906 -41.75 37.046875 -41.53125 C 36.835938 -41.320312 36.660156 -41.007812 36.515625 -40.59375 C 36.367188 -40.1875 36.273438 -39.742188 36.234375 -39.265625 C 36.203125 -38.785156 36.1875 -38.148438 36.1875 -37.359375 L 36.1875 0.578125 L 35.84375 0.578125 L 7.890625 -40.046875 L 7.890625 -5.5625 C 7.890625 -3.976562 8.039062 -2.863281 8.34375 -2.21875 C 8.65625 -1.582031 9.269531 -1.140625 10.1875 -0.890625 C 11.207031 -0.585938 12.78125 -0.40625 14.90625 -0.34375 L 14.90625 0 Z M 1.359375 0 "/></g></g></g><g fill="#000000" fill-opacity="1"><g transform="translate(139.737996, 207.937837)"><g><path d="M 1.359375 0 L 1.359375 -0.34375 C 3.710938 -0.457031 5.179688 -0.65625 5.765625 -0.9375 C 6.359375 -1.21875 6.65625 -1.882812 6.65625 -2.9375 L 6.65625 -39.984375 C 6.65625 -41.035156 6.359375 -41.703125 5.765625 -41.984375 C 5.179688 -42.265625 3.710938 -42.460938 1.359375 -42.578125 L 1.359375 -42.921875 L 13.96875 -42.921875 L 13.96875 -42.578125 C 11.601562 -42.460938 10.128906 -42.265625 9.546875 -41.984375 C 8.960938 -41.703125 8.671875 -41.035156 8.671875 -39.984375 L 8.671875 -2.9375 C 8.671875 -1.882812 8.960938 -1.21875 9.546875 -0.9375 C 10.128906 -0.65625 11.601562 -0.457031 13.96875 -0.34375 L 13.96875 0 Z M 1.359375 0 "/></g></g></g><g fill="#000000" fill-opacity="1"><g transform="translate(155.350271, 207.937837)"><g/></g></g><g fill="#000000" fill-opacity="1"><g transform="translate(167.879805, 207.937837)"><g/></g></g><g fill="#000000" fill-opacity="1"><g transform="translate(180.40934, 207.937837)"><g/></g></g><g fill="#000000" fill-opacity="1"><g transform="translate(192.938874, 207.937837)"><g/></g></g><g fill="#000000" fill-opacity="1"><g transform="translate(205.468409, 207.937837)"><g/></g></g><g fill="#000000" fill-opacity="1"><g transform="translate(217.997943, 207.937837)"><g/></g></g><g fill="#000000" fill-opacity="1"><g transform="translate(230.527478, 207.937837)"><g/></g></g><g fill="#000000" fill-opacity="1"><g transform="translate(154.799627, 207.027269)"><g><path d="M 41.09375 -11.140625 L 41.8125 -11.140625 C 39.851562 -7.816406 37.203125 -5.109375 33.859375 -3.015625 C 30.515625 -0.921875 26.785156 0.125 22.671875 0.125 C 19.660156 0.125 16.84375 -0.441406 14.21875 -1.578125 C 11.601562 -2.710938 9.300781 -4.285156 7.3125 -6.296875 C 5.320312 -8.304688 3.757812 -10.628906 2.625 -13.265625 C 1.488281 -15.910156 0.921875 -18.742188 0.921875 -21.765625 C 0.921875 -24.773438 1.488281 -27.601562 2.625 -30.25 C 3.757812 -32.894531 5.320312 -35.210938 7.3125 -37.203125 C 9.300781 -39.191406 11.601562 -40.753906 14.21875 -41.890625 C 16.84375 -43.023438 19.660156 -43.59375 22.671875 -43.59375 C 26.210938 -43.59375 29.523438 -42.78125 32.609375 -41.15625 C 35.691406 -39.539062 38.21875 -37.445312 40.1875 -34.875 L 40.1875 -30.21875 C 38.476562 -33.800781 36.191406 -36.71875 33.328125 -38.96875 C 30.460938 -41.21875 27.304688 -42.59375 23.859375 -43.09375 C 20.410156 -43.59375 16.894531 -42.972656 13.3125 -41.234375 C 9.675781 -39.523438 6.972656 -37.160156 5.203125 -34.140625 C 3.441406 -31.128906 2.5625 -27.800781 2.5625 -24.15625 C 2.5625 -20.507812 3.410156 -16.894531 5.109375 -13.3125 C 6.859375 -9.726562 9.164062 -6.796875 12.03125 -4.515625 C 14.894531 -2.242188 18.0625 -0.867188 21.53125 -0.390625 C 25.007812 0.0859375 28.515625 -0.523438 32.046875 -2.234375 C 34.191406 -3.273438 36.03125 -4.5625 37.5625 -6.09375 C 39.09375 -7.625 40.269531 -9.304688 41.09375 -11.140625 Z M 41.09375 -11.140625 "/></g></g></g><g fill="#000000" fill-opacity="1"><g transform="translate(118.750948, 222.877692)"><g><path d="M 8.90625 -6.078125 L 9.40625 -6.078125 L 7.15625 0.09375 L 6.96875 0.09375 L 4.9375 -5.234375 L 2.90625 0.09375 L 2.71875 0.09375 L 0.46875 -6.078125 L 0.984375 -6.078125 L 2.828125 -0.890625 L 4.84375 -6.171875 L 5.03125 -6.171875 L 7.0625 -0.890625 Z M 8.90625 -6.078125 "/></g></g></g><g fill="#000000" fill-opacity="1"><g transform="translate(130.264701, 222.877692)"><g><path d="M 0.90625 0 L 0.90625 -6.078125 L 4.703125 -6.078125 L 4.703125 -5.65625 L 1.375 -5.65625 L 1.375 -3.5 L 3.96875 -3.5 L 3.96875 -3.0625 L 1.375 -3.0625 L 1.375 -0.4375 L 4.828125 -0.4375 L 4.828125 0 Z M 0.90625 0 "/></g></g></g><g fill="#000000" fill-opacity="1"><g transform="translate(137.086293, 222.877692)"><g><path d="M 0.90625 0 L 0.90625 -6.078125 L 2.625 -6.078125 C 3.320312 -6.078125 3.914062 -5.945312 4.40625 -5.6875 C 4.90625 -5.425781 5.28125 -5.066406 5.53125 -4.609375 C 5.789062 -4.148438 5.921875 -3.628906 5.921875 -3.046875 C 5.941406 -2.472656 5.816406 -1.953125 5.546875 -1.484375 C 5.285156 -1.023438 4.90625 -0.660156 4.40625 -0.390625 C 3.90625 -0.117188 3.3125 0.0078125 2.625 0 Z M 1.375 -0.4375 L 2.625 -0.4375 C 3.21875 -0.4375 3.722656 -0.550781 4.140625 -0.78125 C 4.554688 -1.007812 4.875 -1.320312 5.09375 -1.71875 C 5.320312 -2.113281 5.4375 -2.554688 5.4375 -3.046875 C 5.4375 -3.535156 5.320312 -3.976562 5.09375 -4.375 C 4.875 -4.769531 4.554688 -5.082031 4.140625 -5.3125 C 3.722656 -5.539062 3.21875 -5.65625 2.625 -5.65625 L 1.375 -5.65625 Z M 1.375 -0.4375 "/></g></g></g><g fill="#000000" fill-opacity="1"><g transform="translate(145.133939, 222.877692)"><g><path d="M 0.90625 0 L 0.90625 -6.078125 L 2.625 -6.078125 C 3.320312 -6.078125 3.914062 -5.945312 4.40625 -5.6875 C 4.90625 -5.425781 5.28125 -5.066406 5.53125 -4.609375 C 5.789062 -4.148438 5.921875 -3.628906 5.921875 -3.046875 C 5.941406 -2.472656 5.816406 -1.953125 5.546875 -1.484375 C 5.285156 -1.023438 4.90625 -0.660156 4.40625 -0.390625 C 3.90625 -0.117188 3.3125 0.0078125 2.625 0 Z M 1.375 -0.4375 L 2.625 -0.4375 C 3.21875 -0.4375 3.722656 -0.550781 4.140625 -0.78125 C 4.554688 -1.007812 4.875 -1.320312 5.09375 -1.71875 C 5.320312 -2.113281 5.4375 -2.554688 5.4375 -3.046875 C 5.4375 -3.535156 5.320312 -3.976562 5.09375 -4.375 C 4.875 -4.769531 4.554688 -5.082031 4.140625 -5.3125 C 3.722656 -5.539062 3.21875 -5.65625 2.625 -5.65625 L 1.375 -5.65625 Z M 1.375 -0.4375 "/></g></g></g><g fill="#000000" fill-opacity="1"><g transform="translate(153.181585, 222.877692)"><g><path d="M 0.90625 0 L 0.90625 -6.078125 L 1.375 -6.078125 L 1.375 0 Z M 0.90625 0 "/></g></g></g><g fill="#000000" fill-opacity="1"><g transform="translate(157.090169, 222.877692)"><g><path d="M 5.125 -6.078125 L 5.609375 -6.078125 L 5.609375 0.09375 L 5.40625 0.09375 L 1.375 -5.0625 L 1.375 0 L 0.90625 0 L 0.90625 -6.171875 L 1.09375 -6.171875 L 5.125 -0.984375 Z M 5.125 -6.078125 "/></g></g></g><g fill="#000000" fill-opacity="1"><g transform="translate(165.229994, 222.877692)"><g><path d="M 0.5 -3.046875 C 0.5 -3.484375 0.578125 -3.890625 0.734375 -4.265625 C 0.890625 -4.648438 1.113281 -4.984375 1.40625 -5.265625 C 1.695312 -5.554688 2.03125 -5.78125 2.40625 -5.9375 C 2.789062 -6.101562 3.195312 -6.179688 3.625 -6.171875 C 4.113281 -6.171875 4.570312 -6.066406 5 -5.859375 C 5.425781 -5.648438 5.773438 -5.351562 6.046875 -4.96875 L 5.6875 -4.6875 C 5.445312 -5.019531 5.148438 -5.273438 4.796875 -5.453125 C 4.453125 -5.640625 4.0625 -5.734375 3.625 -5.734375 C 3.125 -5.734375 2.675781 -5.613281 2.28125 -5.375 C 1.894531 -5.132812 1.585938 -4.8125 1.359375 -4.40625 C 1.128906 -4.007812 1.015625 -3.554688 1.015625 -3.046875 C 1.015625 -2.546875 1.125 -2.085938 1.34375 -1.671875 C 1.570312 -1.265625 1.882812 -0.941406 2.28125 -0.703125 C 2.6875 -0.460938 3.140625 -0.34375 3.640625 -0.34375 C 4.117188 -0.34375 4.550781 -0.453125 4.9375 -0.671875 C 5.320312 -0.890625 5.628906 -1.179688 5.859375 -1.546875 L 5.859375 -2.546875 L 3.625 -2.546875 L 3.625 -3 L 6.34375 -3 L 6.34375 -1.453125 C 6.070312 -0.972656 5.691406 -0.59375 5.203125 -0.3125 C 4.722656 -0.0390625 4.195312 0.09375 3.625 0.09375 C 3.1875 0.09375 2.78125 0.015625 2.40625 -0.140625 C 2.03125 -0.296875 1.695312 -0.519531 1.40625 -0.8125 C 1.113281 -1.101562 0.890625 -1.4375 0.734375 -1.8125 C 0.578125 -2.195312 0.5 -2.609375 0.5 -3.046875 Z M 0.5 -3.046875 "/></g></g></g><g fill="#000000" fill-opacity="1"><g transform="translate(173.729336, 222.877692)"><g><path d="M 0.421875 -1.203125 L 0.78125 -1.46875 C 1 -1.125 1.257812 -0.851562 1.5625 -0.65625 C 1.863281 -0.457031 2.21875 -0.359375 2.625 -0.359375 C 3.019531 -0.359375 3.347656 -0.460938 3.609375 -0.671875 C 3.867188 -0.878906 4 -1.160156 4 -1.515625 C 3.988281 -1.734375 3.945312 -1.90625 3.875 -2.03125 C 3.800781 -2.164062 3.679688 -2.285156 3.515625 -2.390625 C 3.359375 -2.503906 3.144531 -2.628906 2.875 -2.765625 L 2.1875 -3.09375 C 1.9375 -3.207031 1.707031 -3.328125 1.5 -3.453125 C 1.300781 -3.585938 1.144531 -3.75 1.03125 -3.9375 C 0.914062 -4.132812 0.851562 -4.378906 0.84375 -4.671875 C 0.84375 -4.984375 0.921875 -5.25 1.078125 -5.46875 C 1.234375 -5.695312 1.445312 -5.867188 1.71875 -5.984375 C 1.988281 -6.109375 2.285156 -6.171875 2.609375 -6.171875 C 2.992188 -6.171875 3.34375 -6.082031 3.65625 -5.90625 C 3.976562 -5.738281 4.238281 -5.503906 4.4375 -5.203125 L 4.078125 -4.9375 C 3.703125 -5.46875 3.210938 -5.734375 2.609375 -5.734375 C 2.253906 -5.734375 1.957031 -5.644531 1.71875 -5.46875 C 1.46875 -5.289062 1.34375 -5.035156 1.34375 -4.703125 C 1.351562 -4.484375 1.394531 -4.304688 1.46875 -4.171875 C 1.539062 -4.046875 1.65625 -3.9375 1.8125 -3.84375 C 1.976562 -3.75 2.179688 -3.640625 2.421875 -3.515625 L 3.09375 -3.1875 C 3.570312 -2.96875 3.925781 -2.734375 4.15625 -2.484375 C 4.382812 -2.242188 4.5 -1.921875 4.5 -1.515625 C 4.5 -1.203125 4.414062 -0.921875 4.25 -0.671875 C 4.082031 -0.429688 3.851562 -0.242188 3.5625 -0.109375 C 3.28125 0.0234375 2.960938 0.09375 2.609375 0.09375 C 2.148438 0.09375 1.726562 -0.0195312 1.34375 -0.25 C 0.96875 -0.476562 0.660156 -0.796875 0.421875 -1.203125 Z M 0.421875 -1.203125 "/></g></g></g><g fill="#000000" fill-opacity="1"><g transform="translate(180.4864, 222.877692)"><g/></g></g><g fill="#000000" fill-opacity="1"><g transform="translate(184.699197, 222.877692)"><g><path d="M 5.25 0 L 4.65625 -1.453125 L 1.453125 -1.453125 L 0.859375 0 L 0.359375 0 L 2.96875 -6.171875 L 3.15625 -6.171875 L 5.765625 0 Z M 3.0625 -5.3125 L 1.640625 -1.875 L 4.46875 -1.875 Z M 3.0625 -5.3125 "/></g></g></g><g fill="#000000" fill-opacity="1"><g transform="translate(192.451855, 222.877692)"><g><path d="M 5.125 -6.078125 L 5.609375 -6.078125 L 5.609375 0.09375 L 5.40625 0.09375 L 1.375 -5.0625 L 1.375 0 L 0.90625 0 L 0.90625 -6.171875 L 1.09375 -6.171875 L 5.125 -0.984375 Z M 5.125 -6.078125 "/></g></g></g><g fill="#000000" fill-opacity="1"><g transform="translate(200.59168, 222.877692)"><g><path d="M 0.90625 0 L 0.90625 -6.078125 L 2.625 -6.078125 C 3.320312 -6.078125 3.914062 -5.945312 4.40625 -5.6875 C 4.90625 -5.425781 5.28125 -5.066406 5.53125 -4.609375 C 5.789062 -4.148438 5.921875 -3.628906 5.921875 -3.046875 C 5.941406 -2.472656 5.816406 -1.953125 5.546875 -1.484375 C 5.285156 -1.023438 4.90625 -0.660156 4.40625 -0.390625 C 3.90625 -0.117188 3.3125 0.0078125 2.625 0 Z M 1.375 -0.4375 L 2.625 -0.4375 C 3.21875 -0.4375 3.722656 -0.550781 4.140625 -0.78125 C 4.554688 -1.007812 4.875 -1.320312 5.09375 -1.71875 C 5.320312 -2.113281 5.4375 -2.554688 5.4375 -3.046875 C 5.4375 -3.535156 5.320312 -3.976562 5.09375 -4.375 C 4.875 -4.769531 4.554688 -5.082031 4.140625 -5.3125 C 3.722656 -5.539062 3.21875 -5.65625 2.625 -5.65625 L 1.375 -5.65625 Z M 1.375 -0.4375 "/></g></g></g><g fill="#000000" fill-opacity="1"><g transform="translate(208.639326, 222.877692)"><g/></g></g><g fill="#000000" fill-opacity="1"><g transform="translate(212.852124, 222.877692)"><g><path d="M 0.90625 0 L 0.90625 -6.078125 L 4.703125 -6.078125 L 4.703125 -5.65625 L 1.375 -5.65625 L 1.375 -3.5 L 3.96875 -3.5 L 3.96875 -3.0625 L 1.375 -3.0625 L 1.375 -0.4375 L 4.828125 -0.4375 L 4.828125 0 Z M 0.90625 0 "/></g></g></g><g fill="#000000" fill-opacity="1"><g transform="translate(219.673715, 222.877692)"><g><path d="M 5.25 -6.078125 L 5.765625 -6.078125 L 3.15625 0.09375 L 2.96875 0.09375 L 0.359375 -6.078125 L 0.875 -6.078125 L 3.0625 -0.828125 Z M 5.25 -6.078125 "/></g></g></g><g fill="#000000" fill-opacity="1"><g transform="translate(227.426367, 222.877692)"><g><path d="M 0.90625 0 L 0.90625 -6.078125 L 4.703125 -6.078125 L 4.703125 -5.65625 L 1.375 -5.65625 L 1.375 -3.5 L 3.96875 -3.5 L 3.96875 -3.0625 L 1.375 -3.0625 L 1.375 -0.4375 L 4.828125 -0.4375 L 4.828125 0 Z M 0.90625 0 "/></g></g></g><g fill="#000000" fill-opacity="1"><g transform="translate(234.247952, 222.877692)"><g><path d="M 5.125 -6.078125 L 5.609375 -6.078125 L 5.609375 0.09375 L 5.40625 0.09375 L 1.375 -5.0625 L 1.375 0 L 0.90625 0 L 0.90625 -6.171875 L 1.09375 -6.171875 L 5.125 -0.984375 Z M 5.125 -6.078125 "/></g></g></g><g fill="#000000" fill-opacity="1"><g transform="translate(242.387784, 222.877692)"><g><path d="M 2.4375 0 L 2.4375 -5.65625 L 0.21875 -5.65625 L 0.21875 -6.078125 L 5.15625 -6.078125 L 5.15625 -5.65625 L 2.921875 -5.65625 L 2.921875 0 Z M 2.4375 0 "/></g></g></g><g fill="#000000" fill-opacity="1"><g transform="translate(249.393751, 222.877692)"><g><path d="M 0.421875 -1.203125 L 0.78125 -1.46875 C 1 -1.125 1.257812 -0.851562 1.5625 -0.65625 C 1.863281 -0.457031 2.21875 -0.359375 2.625 -0.359375 C 3.019531 -0.359375 3.347656 -0.460938 3.609375 -0.671875 C 3.867188 -0.878906 4 -1.160156 4 -1.515625 C 3.988281 -1.734375 3.945312 -1.90625 3.875 -2.03125 C 3.800781 -2.164062 3.679688 -2.285156 3.515625 -2.390625 C 3.359375 -2.503906 3.144531 -2.628906 2.875 -2.765625 L 2.1875 -3.09375 C 1.9375 -3.207031 1.707031 -3.328125 1.5 -3.453125 C 1.300781 -3.585938 1.144531 -3.75 1.03125 -3.9375 C 0.914062 -4.132812 0.851562 -4.378906 0.84375 -4.671875 C 0.84375 -4.984375 0.921875 -5.25 1.078125 -5.46875 C 1.234375 -5.695312 1.445312 -5.867188 1.71875 -5.984375 C 1.988281 -6.109375 2.285156 -6.171875 2.609375 -6.171875 C 2.992188 -6.171875 3.34375 -6.082031 3.65625 -5.90625 C 3.976562 -5.738281 4.238281 -5.503906 4.4375 -5.203125 L 4.078125 -4.9375 C 3.703125 -5.46875 3.210938 -5.734375 2.609375 -5.734375 C 2.253906 -5.734375 1.957031 -5.644531 1.71875 -5.46875 C 1.46875 -5.289062 1.34375 -5.035156 1.34375 -4.703125 C 1.351562 -4.484375 1.394531 -4.304688 1.46875 -4.171875 C 1.539062 -4.046875 1.65625 -3.9375 1.8125 -3.84375 C 1.976562 -3.75 2.179688 -3.640625 2.421875 -3.515625 L 3.09375 -3.1875 C 3.570312 -2.96875 3.925781 -2.734375 4.15625 -2.484375 C 4.382812 -2.242188 4.5 -1.921875 4.5 -1.515625 C 4.5 -1.203125 4.414062 -0.921875 4.25 -0.671875 C 4.082031 -0.429688 3.851562 -0.242188 3.5625 -0.109375 C 3.28125 0.0234375 2.960938 0.09375 2.609375 0.09375 C 2.148438 0.09375 1.726562 -0.0195312 1.34375 -0.25 C 0.96875 -0.476562 0.660156 -0.796875 0.421875 -1.203125 Z M 0.421875 -1.203125 "/></g></g></g></svg>